#!OML:ASF F:\VICON\USERDATA\INSTALL\rory3\rory3.ASF
:FULLY-SPECIFIED
:DEGREES
814
root 4.95985 16.5413 1.98576 6.00101 -14.4974 -7.27186
lowerback 20.2104 -0.738425 4.558
upperback 4.91727 0.0118493 1.37713
thorax -5.95715 -0.0654732 -1.11565
lowerneck -14.8949 -0.336702 -2.10906
upperneck 37.2331 0.458138 -1.2933
head 15.632 -0.363115 -0.119366
rclavicle -2.56432e-014 6.36111e-015
rhumerus -35.6909 -0.910128 -8.32419
rradius 27.7449
rwrist 11.3646
rhand -22.4502 -51.2042
rfingers 7.12502
rthumb 3.97408 -81.1469
lclavicle -2.56432e-014 6.36111e-015
lhumerus -33.5008 -0.810071 1.89802
lradius 23.6661
lwrist 10.0291
lhand -23.9238 -33.566
lfingers 7.12502
lthumb 2.551 -3.60149
rfemur -101.757 1.72201 28.5212
rtibia 98.2324
rfoot 49.4442 3.11915
rtoes -2.0086
lfemur -31.0487 2.52038 -22.8648
ltibia 50.0039
lfoot -21.4707 11.0404
ltoes 15.5084
815
root 4.95861 16.538 1.98511 6.01617 -14.5279 -7.35877
lowerback 20.2346 -0.720527 4.65989
upperback 4.91371 0.0594185 1.40784
thorax -5.97067 -0.0439324 -1.15216
lowerneck -14.849 -0.398228 -2.19368
upperneck 37.1537 0.363642 -1.22051
head 15.5815 -0.40268 -0.0885782
rclavicle -3.02153e-014 4.77083e-015
rhumerus -35.7835 -0.87108 -8.30927
rradius 27.7924
rwrist 11.1817
rhand -22.8562 -50.8424
rfingers 7.12502
rthumb 3.58192 -80.792
lclavicle -3.02153e-014 4.77083e-015
lhumerus -33.4725 -0.831016 1.99143
lradius 23.5659
lwrist 9.93146
lhand -23.877 -33.8698
lfingers 7.12502
lthumb 2.59619 -3.90587
rfemur -101.734 1.76578 28.6068
rtibia 98.2525
rfoot 49.4716 2.79362
rtoes -1.36024
lfemur -31.067 2.51958 -22.7717
ltibia 50.0695
lfoot -21.4815 11.1511
ltoes 15.2829
816
root 4.95963 16.5379 1.98489 6.00918 -14.5409 -7.27151
lowerback 20.2435 -0.71432 4.61213
upperback 4.87751 0.0593268 1.39605
thorax -6.01488 -0.0445816 -1.13755
lowerneck -14.7098 -0.411864 -2.28409
upperneck 37.1208 0.337216 -1.1446
head 15.5316 -0.41516 -0.0440404
rclavicle 1.16289e-014 -1.98785e-015
rhumerus -35.8574 -0.79091 -8.31333
rradius 28.0173
rwrist 11.057
rhand -22.9784 -50.7997
rfingers 7.12502
rthumb 3.46398 -80.7513
lclavicle 1.16289e-014 -1.98785e-015
lhumerus -33.4764 -0.796919 2.00726
lradius 23.5742
lwrist 9.88985
lhand -23.629 -33.418
lfingers 7.12502
lthumb 2.83569 -3.45715
rfemur -101.742 1.72414 28.5158
rtibia 98.2929
rfoot 49.6068 2.56103
rtoes -0.0544966
lfemur -31.079 2.4342 -22.864
ltibia 50.0803
lfoot -21.4924 11.2236
ltoes 15.2927
817
root 4.96104 16.5372 1.98154 6.02978 -14.5005 -7.08535
lowerback 20.289 -0.731195 4.4796
upperback 4.79382 0.0141271 1.35066
thorax -6.13256 -0.0677591 -1.09938
lowerneck -14.6059 -0.399007 -2.33066
upperneck 37.1742 0.338343 -1.07128
head 15.5328 -0.412085 -0.00459765
rclavicle -3.06128e-014 8.74653e-015
rhumerus -35.9552 -0.575447 -8.38111
rradius 28.2989
rwrist 10.9423
rhand -22.9036 -51.0561
rfingers 7.12502
rthumb 3.53618 -81.0066
lclavicle -3.06128e-014 8.74653e-015
lhumerus -33.4456 -0.855849 2.02798
lradius 23.5072
lwrist 9.89518
lhand -23.5351 -31.9075
lfingers 7.12502
lthumb 2.92634 -1.94778
rfemur -101.862 1.61349 28.3192
rtibia 98.3613
rfoot 49.7325 2.44253
rtoes 0.881233
lfemur -31.1451 2.32798 -23.0637
ltibia 50.0562
lfoot -21.4746 11.2313
ltoes 15.5083
818
root 4.96026 16.5375 1.97691 6.04675 -14.5481 -7.07326
lowerback 20.3644 -0.739269 4.45354
upperback 4.74448 0.00478093 1.35016
thorax -6.22633 -0.0742167 -1.08225
lowerneck -14.5214 -0.352782 -2.19918
upperneck 37.1601 0.433046 -1.25984
head 15.5061 -0.380089 -0.0919328
rclavicle -1.71949e-014 1.35174e-014
rhumerus -35.9619 -0.353488 -8.4688
rradius 28.4955
rwrist 10.8521
rhand -22.6931 -51.2229
rfingers 7.12502
rthumb 3.73943 -81.1698
lclavicle -1.71949e-014 1.35174e-014
lhumerus -33.4636 -0.94781 2.06301
lradius 23.3668
lwrist 9.98255
lhand -23.6932 -31.2302
lfingers 7.12502
lthumb 2.77364 -1.26851
rfemur -101.869 1.65074 28.3012
rtibia 98.389
rfoot 49.844 2.39851
rtoes 1.09586
lfemur -31.1555 2.34911 -23.0705
ltibia 50.0199
lfoot -21.4598 11.2502
ltoes 15.5544
819
root 4.95911 16.5412 1.97549 6.05995 -14.6287 -7.1851
lowerback 20.3721 -0.75903 4.5395
upperback 4.74414 -0.000911654 1.381
thorax -6.23066 -0.078301 -1.09635
lowerneck -14.431 -0.286061 -2.03846
upperneck 37.0698 0.577443 -1.52447
head 15.4413 -0.332467 -0.207539
rclavicle 1.39149e-014 -2.62396e-014
rhumerus -35.8594 -0.211986 -8.54659
rradius 28.559
rwrist 10.843
rhand -22.705 -51.3422
rfingers 7.12502
rthumb 3.72796 -81.2894
lclavicle 1.39149e-014 -2.62396e-014
lhumerus -33.5259 -0.8881 2.0046
lradius 23.3147
lwrist 9.97465
lhand -23.8726 -32.4826
lfingers 7.12502
lthumb 2.60044 -2.51871
rfemur -101.766 1.75291 28.4047
rtibia 98.3624
rfoot 49.9628 2.37149
rtoes 0.899972
lfemur -31.1273 2.39842 -22.9373
ltibia 49.9894
lfoot -21.4763 11.2552
ltoes 15.5967
820
root 4.9577 16.5469 1.97552 6.03043 -14.6984 -7.27475
lowerback 20.419 -0.785767 4.59551
upperback 4.76762 -0.0210893 1.40586
thorax -6.23066 -0.0887527 -1.09617
lowerneck -14.4136 -0.250352 -2.05585
upperneck 37.0365 0.647471 -1.55959
head 15.4211 -0.31045 -0.20726
rclavicle 2.13694e-014 -7.95139e-016
rhumerus -35.7261 -0.14938 -8.62272
rradius 28.5367
rwrist 10.9257
rhand -23.2852 -51.2975
rfingers 7.12502
rthumb 3.16765 -81.2537
lclavicle 2.13694e-014 -7.95139e-016
lhumerus -33.6233 -0.667117 1.86333
lradius 23.3583
lwrist 9.70531
lhand -23.8854 -32.9826
lfingers 7.12502
lthumb 2.58801 -3.01856
rfemur -101.612 1.83349 28.479
rtibia 98.3093
rfoot 49.9193 2.42308
rtoes 0.692605
lfemur -31.0562 2.44367 -22.8296
ltibia 49.9675
lfoot -21.4768 11.2863
ltoes 15.6177
821
root 4.95391 16.5531 1.9717 6.02056 -14.8568 -7.4631
lowerback 20.5313 -0.762911 4.67361
upperback 4.7966 0.0333215 1.46057
thorax -6.25514 -0.0639927 -1.09498
lowerneck -14.5111 -0.250995 -2.16797
upperneck 37.1057 0.649971 -1.46564
head 15.478 -0.314003 -0.147986
rclavicle 1.90833e-014 7.95139e-015
rhumerus -35.612 -0.15131 -8.66627
rradius 28.515
rwrist 10.9642
rhand -23.6731 -51.1571
rfingers 7.12502
rthumb 2.7931 -81.1186
lclavicle 1.90833e-014 7.95139e-015
lhumerus -33.7177 -0.479476 1.78242
lradius 23.4095
lwrist 9.48551
lhand -23.8509 -32.7635
lfingers 7.12502
lthumb 2.62139 -2.7999
rfemur -101.409 2.06461 28.6404
rtibia 98.2059
rfoot 49.7506 2.07558
rtoes 1.0772
lfemur -30.9969 2.59825 -22.6079
ltibia 49.9554
lfoot -21.4598 11.3062
ltoes 15.6732
822
root 4.95123 16.5559 1.96696 6.06217 -14.9906 -7.57596
lowerback 20.6001 -0.724487 4.7295
upperback 4.78109 0.101324 1.48777
thorax -6.30428 -0.0331875 -1.11435
lowerneck -14.568 -0.258129 -2.24916
upperneck 37.182 0.640425 -1.39328
head 15.529 -0.320937 -0.105217
rclavicle 2.01766e-014 -7.55382e-015
rhumerus -35.5624 -0.109342 -8.69538
rradius 28.4759
rwrist 10.9671
rhand -23.7017 -51.2052
rfingers 7.12502
rthumb 2.76543 -81.167
lclavicle 2.01766e-014 -7.55382e-015
lhumerus -33.7662 -0.46158 1.79888
lradius 23.4414
lwrist 9.52398
lhand -23.929 -32.6092
lfingers 7.12502
lthumb 2.54597 -2.64462
rfemur -101.337 2.25595 28.7307
rtibia 98.1487
rfoot 49.6485 1.9951
rtoes 1.08743
lfemur -31.0081 2.68473 -22.477
ltibia 49.9421
lfoot -21.4493 11.3593
ltoes 15.6625
823
root 4.95326 16.5555 1.96615 6.09456 -14.9919 -7.46921
lowerback 20.5948 -0.731781 4.70769
upperback 4.73877 0.0863506 1.44836
thorax -6.34832 -0.0413948 -1.14049
lowerneck -14.4618 -0.274033 -2.27795
upperneck 37.1139 0.63089 -1.41957
head 15.4702 -0.331126 -0.112083
rclavicle 1.50082e-014 1.63003e-014
rhumerus -35.5671 0.023354 -8.75082
rradius 28.5347
rwrist 10.8891
rhand -23.756 -51.3559
rfingers 7.12502
rthumb 2.71302 -81.3184
lclavicle 1.50082e-014 1.63003e-014
lhumerus -33.8298 -0.59794 1.8845
lradius 23.4689
lwrist 9.90678
lhand -24.0039 -32.0819
lfingers 7.12502
lthumb 2.47357 -2.11649
rfemur -101.423 2.18112 28.6327
rtibia 98.2104
rfoot 49.6607 2.4589
rtoes 0.466879
lfemur -31.0287 2.58627 -22.612
ltibia 49.9104
lfoot -21.4172 11.4958
ltoes 15.7653
824
root 4.95694 16.5562 1.96528 6.11138 -14.9554 -7.38122
lowerback 20.558 -0.753966 4.74085
upperback 4.72817 0.0598432 1.40674
thorax -6.34156 -0.0546159 -1.19751
lowerneck -14.2526 -0.270278 -2.15838
upperneck 36.8797 0.661909 -1.61305
head 15.3066 -0.323227 -0.207289
rclavicle 4.67144e-015 -7.55382e-015
rhumerus -35.5683 0.0136623 -8.75905
rradius 28.6129
rwrist 10.921
rhand -23.755 -51.402
rfingers 7.12502
rthumb 2.71401 -81.3645
lclavicle 4.67144e-015 -7.55382e-015
lhumerus -33.8341 -0.815533 2.0273
lradius 23.4534
lwrist 10.4474
lhand -24.0711 -31.5135
lfingers 7.12502
lthumb 2.40869 -1.54739
rfemur -101.499 2.03573 28.5776
rtibia 98.3002
rfoot 49.7268 2.78668
rtoes 0.0306345
lfemur -31.0356 2.46958 -22.7241
ltibia 49.8671
lfoot -21.3758 11.5575
ltoes 16.1328
825
root 4.95637 16.5593 1.96223 6.12216 -15.0026 -7.3467
lowerback 20.5218 -0.735322 4.71577
upperback 4.74812 0.0740964 1.3866
thorax -6.30017 -0.0464418 -1.20881
lowerneck -14.1102 -0.226853 -1.94338
upperneck 36.6467 0.753406 -1.88215
head 15.1616 -0.287283 -0.340576
rclavicle 3.29983e-014 1.98785e-014
rhumerus -35.5464 -0.178264 -8.70899
rradius 28.6081
rwrist 11.1821
rhand -23.6386 -51.3358
rfingers 7.12502
rthumb 2.82634 -81.2968
lclavicle 3.29983e-014 1.98785e-014
lhumerus -33.794 -0.948334 2.09878
lradius 23.4111
lwrist 10.6908
lhand -23.9611 -31.0929
lfingers 7.12502
lthumb 2.51497 -1.12797
rfemur -101.523 2.04915 28.5615
rtibia 98.3496
rfoot 49.7079 3.1414
rtoes -0.557223
lfemur -31.0436 2.44793 -22.7491
ltibia 49.8248
lfoot -21.3813 11.5864
ltoes 15.9015
